<svg width="17" height="17" viewBox="0 0 17 17" fill="none" xmlns="http://www.w3.org/2000/svg">
<path id="Union" fill-rule="evenodd" clip-rule="evenodd" d="M1.31376 0.499969H6.64709C7.01528 0.499969 7.31376 0.798446 7.31376 1.16664V6.49997C7.31376 6.86816 7.01528 7.16663 6.64709 7.16663H1.31376C0.945571 7.16663 0.647095 6.86816 0.647095 6.49997V1.16664C0.647095 0.798446 0.945571 0.499969 1.31376 0.499969ZM10.6471 0.499969H15.9804C16.3486 0.499969 16.6471 0.798446 16.6471 1.16664V6.49997C16.6471 6.86816 16.3486 7.16663 15.9804 7.16663H10.6471C10.2789 7.16663 9.98045 6.86816 9.98045 6.49997V1.16664C9.98045 0.798446 10.2789 0.499969 10.6471 0.499969ZM6.64709 9.83332H1.31376C0.945571 9.83332 0.647095 10.1318 0.647095 10.5V15.8333C0.647095 16.2015 0.945571 16.5 1.31376 16.5H6.64709C7.01528 16.5 7.31376 16.2015 7.31376 15.8333V10.5C7.31376 10.1318 7.01528 9.83332 6.64709 9.83332ZM10.6471 9.83332H15.9804C16.3486 9.83332 16.6471 10.1318 16.6471 10.5V15.8333C16.6471 16.2015 16.3486 16.5 15.9804 16.5H10.6471C10.2789 16.5 9.98045 16.2015 9.98045 15.8333V10.5C9.98045 10.1318 10.2789 9.83332 10.6471 9.83332Z" fill="#FCFCFD"/>
</svg>
