<svg width="19" height="21" viewBox="0 0 19 21" fill="none" xmlns="http://www.w3.org/2000/svg">
<g id="Frame" clip-path="url(#clip0_1843_2533)">
<path id="Vector" fill-rule="evenodd" clip-rule="evenodd" d="M4.87742 12.0929L5.29389 12.5082L6.12565 11.6764L5.70918 11.2611L3.59977 9.15056C3.37036 8.92115 3.37036 8.54938 3.59977 8.31879L8.99507 2.92467C9.22566 2.69409 9.59742 2.69409 9.82683 2.92467L15.2221 8.31879C15.4515 8.54938 15.4515 8.92115 15.2221 9.15056L13.1127 11.26L12.6974 11.6764L13.5292 12.5082L13.9445 12.0917L16.0539 9.9835C16.7433 9.29409 16.7433 8.17644 16.0539 7.48703L10.6598 2.09173C9.97036 1.4035 8.85271 1.4035 8.1633 2.09173L2.76801 7.4882C2.07977 8.17762 2.07977 9.29526 2.76801 9.9835L4.87742 12.0941V12.0929ZM8.99507 13.0247L9.41154 12.6094L9.82801 13.0247L13.3574 16.5541L12.5257 17.3859L9.99977 14.8611V20.5H8.8233V14.8611L6.2986 17.3859L5.46683 16.5541L8.99624 13.0247H8.99507Z" fill="#FCFCFD" stroke="#FCFCFD"/>
</g>
<defs>
<clipPath id="clip0_1843_2533">
<rect width="18.8235" height="20" fill="white" transform="translate(0 0.499969)"/>
</clipPath>
</defs>
</svg>
